<svg xmlns="http://www.w3.org/2000/svg" xmlns:xlink="http://www.w3.org/1999/xlink" width="500" zoomAndPan="magnify" viewBox="0 0 375 374.999991" height="500" preserveAspectRatio="xMidYMid meet" version="1.0"><rect x="-37.5" width="450" fill="#ffffff" y="-37.499999" height="449.999989" fill-opacity="1"/><rect x="-37.5" width="450" fill="#ffffff" y="-37.499999" height="449.999989" fill-opacity="1"/><path fill="#cba135" d="M 65.390625 62.648438 C 69.714844 58.414062 74.234375 54.425781 78.933594 50.6875 L 78.933594 224.9375 L 160.523438 112.777344 L 177.574219 112.777344 L 122.085938 188.71875 L 182.78125 260.816406 L 164.816406 260.816406 L 113.9375 200.332031 L 65.390625 266.917969 Z M 223.4375 198.121094 L 223.4375 358.453125 C 218.957031 359.386719 214.429688 360.152344 209.875 360.730469 L 209.671875 112.777344 L 263.019531 112.777344 C 271.707031 112.777344 279.875 114.71875 287.285156 118.535156 C 294.699219 122.359375 300.679688 127.566406 305.050781 134.007812 C 309.457031 140.503906 311.695312 147.714844 311.695312 155.453125 C 311.695312 163.039062 309.464844 170.210938 305.058594 176.785156 C 300.6875 183.304688 294.707031 188.550781 287.285156 192.382812 C 279.875 196.199219 271.707031 198.136719 263.019531 198.136719 L 223.4375 198.136719 Z M 223.433594 184.140625 L 263.019531 184.140625 C 269.390625 184.140625 275.339844 182.816406 280.695312 180.207031 C 286.03125 177.609375 290.335938 174.058594 293.480469 169.652344 C 296.578125 165.3125 298.152344 160.539062 298.152344 155.453125 C 298.152344 150.222656 296.585938 145.371094 293.480469 141.03125 C 290.335938 136.628906 286.03125 133.074219 280.695312 130.476562 C 275.332031 127.867188 269.382812 126.546875 263.019531 126.546875 L 223.214844 126.546875 Z M 78.933594 50.6875 L 78.933594 34.59375 C 74.265625 37.917969 69.753906 41.457031 65.390625 45.203125 L 65.390625 62.648438 C 69.722656 58.40625 74.242188 54.417969 78.933594 50.6875 Z M 209.875 360.730469 L 209.882812 373.6875 C 214.429688 373.144531 218.949219 372.441406 223.4375 371.570312 L 223.4375 358.453125 C 218.957031 359.386719 214.429688 360.152344 209.875 360.730469 Z M 360.265625 114.515625 C 350.828125 92.1875 337.308594 72.132812 320.085938 54.921875 C 302.867188 37.707031 282.816406 24.179688 260.492188 14.742188 C 237.367188 4.960938 212.808594 0 187.5 0 C 162.191406 0 137.632812 4.960938 114.515625 14.742188 C 101.894531 20.078125 90.003906 26.722656 78.933594 34.59375 L 78.933594 50.6875 C 91.292969 40.851562 104.882812 32.773438 119.523438 26.582031 C 141.046875 17.476562 163.921875 12.863281 187.5 12.863281 C 211.078125 12.863281 233.945312 17.484375 255.476562 26.582031 C 276.273438 35.382812 294.949219 47.976562 310.992188 64.015625 C 327.03125 80.050781 339.625 98.734375 348.425781 119.53125 C 357.53125 141.054688 362.144531 163.929688 362.144531 187.507812 C 362.144531 211.085938 357.523438 233.953125 348.425781 255.484375 C 339.625 276.28125 327.03125 294.957031 310.992188 311 C 294.957031 327.039062 276.273438 339.632812 255.476562 348.433594 C 245.085938 352.828125 234.386719 356.171875 223.4375 358.460938 L 223.4375 371.578125 C 236.109375 369.121094 248.492188 365.34375 260.492188 360.273438 C 282.816406 350.835938 302.875 337.316406 320.085938 320.09375 C 337.300781 302.875 350.828125 282.824219 360.265625 260.5 C 370.046875 237.375 375.007812 212.824219 375.007812 187.515625 C 375 162.191406 370.046875 137.640625 360.265625 114.515625 Z M 187.5 362.144531 C 163.921875 362.144531 141.046875 357.523438 119.523438 348.425781 C 98.726562 339.625 80.050781 327.03125 64.007812 310.992188 C 47.96875 294.957031 35.375 276.273438 26.574219 255.476562 C 17.46875 233.953125 12.855469 211.078125 12.855469 187.5 C 12.855469 163.921875 17.476562 141.054688 26.574219 119.523438 C 35.375 98.726562 47.96875 80.050781 64.007812 64.007812 C 64.460938 63.550781 64.925781 63.09375 65.390625 62.640625 L 65.390625 45.203125 C 61.789062 48.300781 58.296875 51.539062 54.914062 54.921875 C 37.699219 72.132812 24.179688 92.1875 14.742188 114.515625 C 4.960938 137.640625 0 162.191406 0 187.5 C 0 212.808594 4.960938 237.367188 14.742188 260.484375 C 24.179688 282.808594 37.699219 302.867188 54.921875 320.078125 C 72.140625 337.292969 92.1875 350.820312 114.515625 360.257812 C 137.640625 370.039062 162.191406 375 187.5 375 C 195.03125 375 202.496094 374.558594 209.882812 373.679688 L 209.875 360.722656 C 202.503906 361.671875 195.039062 362.144531 187.5 362.144531 Z M 187.5 362.144531 " fill-opacity="1" fill-rule="nonzero"/></svg>